<?xml version="1.0" encoding="UTF-8" standalone="no"?>
<!-- Created with Inkscape (http://www.inkscape.org/) -->

<svg
   xmlns:dc="http://purl.org/dc/elements/1.1/"
   xmlns:cc="http://creativecommons.org/ns#"
   xmlns:rdf="http://www.w3.org/1999/02/22-rdf-syntax-ns#"
   xmlns:svg="http://www.w3.org/2000/svg"
   xmlns="http://www.w3.org/2000/svg"
   xmlns:sodipodi="http://sodipodi.sourceforge.net/DTD/sodipodi-0.dtd"
   xmlns:inkscape="http://www.inkscape.org/namespaces/inkscape"
   width="600"
   height="600"
   viewBox="0 0 158.75001 158.75"
   version="1.1"
   id="svg8"
   sodipodi:docname="iconsrc.svg"
   inkscape:version="0.92.0 r15299"
   inkscape:export-filename="C:\Users\kkise_000\Documents\GitHub\FireKittenCMS\icon20.png"
   inkscape:export-xdpi="3.2"
   inkscape:export-ydpi="3.2">
  <defs
     id="defs2" />
  <sodipodi:namedview
     id="base"
     pagecolor="#ffffff"
     bordercolor="#666666"
     borderopacity="1.0"
     inkscape:pageopacity="0.0"
     inkscape:pageshadow="2"
     inkscape:zoom="0.99166667"
     inkscape:cx="300"
     inkscape:cy="300"
     inkscape:document-units="mm"
     inkscape:current-layer="layer1"
     showgrid="true"
     units="px"
     inkscape:window-width="1366"
     inkscape:window-height="745"
     inkscape:window-x="-8"
     inkscape:window-y="-8"
     inkscape:window-maximized="1"
     fit-margin-top="0"
     fit-margin-left="0"
     fit-margin-right="0"
     fit-margin-bottom="0">
    <inkscape:grid
       type="xygrid"
       id="grid10"
       spacingx="1.3229167"
       spacingy="1.3229167"
       dotted="true"
       originx="-88.902443"
       originy="-30.033879" />
  </sodipodi:namedview>
  <metadata
     id="metadata5">
    <rdf:RDF>
      <cc:Work
         rdf:about="">
        <dc:format>image/svg+xml</dc:format>
        <dc:type
           rdf:resource="http://purl.org/dc/dcmitype/StillImage" />
        <dc:title />
      </cc:Work>
    </rdf:RDF>
  </metadata>
  <g
     inkscape:label="Layer 1"
     inkscape:groupmode="layer"
     id="layer1"
     transform="translate(-88.902439,-108.21613)">
    <g
       id="g4929"
       transform="matrix(1.1174311,0,0,1.1174311,-8.5968682,-55.582506)"
       style="fill:#000000;stroke:#000000;stroke-width:1;stroke-miterlimit:4;stroke-dasharray:none">
      <path
         transform="matrix(0.26458333,0,0,0.26458333,0,138.25001)"
         id="path4526"
         d="m 830,115 -10,5 -5,15 v 15 h 10 l 10,-5 h 20 l -10,-20 z m 25,60 -45,5 v 25 l 35,5 10,-20 z m -158.62109,8.86523 c -3.63451,-0.005 -9.64818,1.47262 -11.125,1.8418 -0.65541,0.16403 -6.7743,0.22715 -7.22852,0 -1.28171,-0.64086 -2.67552,-0.99805 -4.23828,-0.99805 -3.75568,0 -15.95851,-0.68689 -18.78711,0.29102 0.0302,0.6511 0.0117,1.30649 0.0918,1.95312 0.0378,0.29556 2.45375,5.94403 2.49218,5.98243 0.39958,0.39957 -0.26267,1.96649 0,2.49218 0.55571,1.11145 0.68775,2.37358 1.2461,3.49024 0.27288,0.54595 -0.0259,1.44331 0.25,1.99414 1.69765,3.3953 2.64188,8.8743 5.23437,11.4668 0.66679,0.66678 1.39564,1.07184 2.24414,1.49609 0.26608,0.13304 0.73021,-0.13304 0.9961,0 1.50187,0.75095 2.98384,1.4919 4.48828,2.24414 0.42497,0.21241 9.43333,0.51655 9.9707,0.24805 0.46027,-0.23018 1.06262,-0.0326 1.4961,-0.24805 0.36321,-0.18142 1.34564,-0.99805 1.49414,-0.99805 0.14977,0 0.15711,0.38642 0.0371,0.4668 0.17522,-0.0369 0.59968,-0.0799 0.71093,0.0312 0.0265,0.0265 -0.11586,0.86559 0.25,0.5 0.39689,-0.39689 0.71398,-1.71202 1.2461,-2.24414 0.75809,-0.7581 2.24522,-1.37165 3.49023,-1.99414 0.11792,-0.059 1.24642,-4.98777 1.74414,-5.73438 0.79986,-1.19981 2.38728,-1.28232 2.99219,-2.49218 0.13077,-0.26155 -0.1988,-1.0471 0,-1.2461 1.04689,-1.04685 0.71203,-4.41441 1.49609,-5.98242 0.50948,-1.019 1.11407,-2.10006 1.49414,-3.24023 0.28347,-0.84987 -0.39715,-2.19785 0,-2.99219 0.48677,-0.97353 1.55377,-4.67865 0.5,-5.73242 -0.42676,-0.42677 -1.37443,-0.59407 -2.58593,-0.59571 z m -11.33789,31.72266 c -0.0791,0.0166 -0.12174,0.0312 -0.0371,0.0312 0.0165,0 0.0239,-0.0224 0.0371,-0.0312 z m -46.51954,-29.78125 c -0.9009,-0.0497 -2.4559,0.15039 -2.87304,0.15039 -4.65324,0 -9.64784,0.24805 -14.45899,0.24805 -1.16594,0 -6.36943,-0.42955 -7.22851,0 -0.21014,0.10507 -0.27502,0.42569 -0.49805,0.5 -1.25359,0.41786 -3.06995,-0.33589 -4.23828,0.24804 -1.13779,0.5689 -2.43635,-0.0307 -3.49023,0.49805 -2.481,1.24048 -7.92596,0.4747 -8.97266,0.99805 -0.87557,0.43778 -2.00369,0.66659 -2.99219,0.99609 -1.39207,0.46402 -2.4397,-0.39106 -3.76953,0.55469 0.75987,1.3395 -0.79944,8.50477 0.0293,10.16406 0.29971,0.59928 0.5188,1.76494 0.99804,2.24414 0.15459,0.15459 0.58122,0.41447 0.74805,0.74805 0.16592,0.33222 0.51485,2.50899 0.74805,2.74219 1.33931,1.33935 1.01519,5.75155 3.24023,7.97656 0.11755,0.11754 -0.11754,0.38054 0,0.49805 1.59322,1.59326 4.86081,4.29954 6.73047,5.23437 1.42862,0.71433 4.13387,0.82085 5.48438,1.4961 0.33222,0.16629 0.91372,-0.1663 1.24609,0 2.22852,1.11428 5.0824,1.24609 7.72656,1.24609 1.26902,0 4.12594,0.55517 5.23633,0 1.46007,-0.73002 2.65798,-1.16189 3.73828,-2.24219 0.25852,-0.25852 2.12104,-0.31439 2.49219,-0.5 0.60234,-0.30123 1.72665,-0.4786 2.24414,-0.99609 0.13871,-0.13871 0.40256,-0.57529 0.74805,-0.74805 0.14853,-0.0741 0.38054,0.11754 0.49804,0 1.16599,-1.16598 2.05044,-3.66107 2.49219,-4.98633 0.45834,-1.37503 2.12393,-1.75372 2.74219,-2.99023 0.27364,-0.54731 -0.0221,-1.45276 0.25,-1.99414 1.35692,-2.71393 0.99609,-10.63779 0.99609,-14.20899 0,-1.04167 1.41933,-7.05528 0.74805,-7.72656 -0.0884,-0.0884 -0.31493,-0.13381 -0.61524,-0.15039 z m 149.60157,240.32031 c -7.52904,0.76523 -14.41726,6.56586 -12.88867,14.74414 -0.59959,5.98012 0.50613,17.44686 8.66406,16.68555 9.5234,-2.19244 13.28576,-12.51466 10.66992,-21.22852 -0.59648,-3.85533 -1.06822,-10.41193 -6.44531,-10.20117 z m -347.04102,2.05664 c -0.20802,-0.007 -0.41636,2.2e-4 -0.625,0.0254 -5.83207,3.23429 -5.52844,12.4431 -4.60742,18.29883 1.70178,5.80832 9.07442,2.7868 9.74219,-2.13086 2.55638,-5.02329 5.41697,-14.41917 -2.66992,-15.84765 -0.59703,-0.17484 -1.2158,-0.32466 -1.83985,-0.34571 z m 261.93555,21.26953 c -5.90668,0.10861 -11.11054,4.16155 -10.55274,10.5918 -1.19783,5.52621 -1.07949,17.06477 7.40821,14.95899 7.92686,-4.29823 11.33397,-15.90848 8.45703,-24.0586 -0.98012,-1.22237 -2.62978,-1.58123 -4.12305,-1.46093 -0.39851,-0.0283 -0.79567,-0.0385 -1.18945,-0.0313 z m -165.45117,8.34961 c -0.71346,-0.0149 -1.42425,-0.005 -2.125,0.0117 -10.55495,0.14928 -8.372,21.26122 2.02343,18.61719 5.82483,-2.42707 13.81306,-12.58077 6.32227,-17.35742 -1.9226,-0.96194 -4.08032,-1.22665 -6.2207,-1.27149 z"
         style="fill:#000000;stroke:#000000;stroke-width:3.77952766;stroke-linecap:butt;stroke-linejoin:miter;stroke-miterlimit:4;stroke-dasharray:none;stroke-opacity:1"
         inkscape:connector-curvature="0" />
      <path
         transform="matrix(0.26458333,0,0,0.26458333,0,138.25001)"
         id="path4508"
         d="m 850.36328,143.44336 c -0.26112,-0.0118 -0.53043,0.002 -0.80664,0.0391 -7.10125,0.53593 -14.15281,1.86309 -21.02539,3.71289 -2.52689,0.83628 -4.66819,2.55568 -7.33203,3.04492 -2.8248,0.63064 -5.55659,2.40843 -6.34375,5.34375 -1.49856,5.44573 -1.28822,11.18191 -1.70703,16.77344 -0.0268,2.03479 -0.6641,5.00899 1.72851,5.98438 2.31029,0.44922 4.67028,-0.5059 6.99219,-0.63868 8.84365,-1.32326 17.72219,-2.70795 26.71875,-2.5957 2.75618,-0.02 6.36611,-0.35484 7.46875,-3.375 0.65996,-2.91933 -0.16381,-5.96931 0.36914,-8.92773 0.29747,-5.47797 -0.79329,-10.96564 -2.28516,-16.21094 -0.52597,-1.8182 -1.94947,-3.06773 -3.77734,-3.15039 z m -396.67773,21.89648 c -13.11713,-0.22857 -20.89922,13.8152 -18.86524,25.67383 0.007,16.40189 6.34344,31.88404 8.67578,47.82617 -4.96722,7.04305 -3.07145,2.05377 -1.87304,8.73243 0.97577,5.21018 -7.12728,-0.59182 -7.74219,4.63476 0.16967,3.43641 -1.66412,7.5362 -5.61133,5.77735 -4.49721,-0.59455 -1.52544,8.15341 -5.26953,5.01562 -5.94247,-7.29868 -7.86957,-1.06381 -16.9707,-3.01562 -14.15285,-4.13917 -28.0255,-14.20309 -43.27539,-11.80274 -7.13826,3.64687 -12.30417,8.08706 -11.78856,15.32176 -6.83198,11.04381 3.98344,28.44564 6.00145,39.86965 5.26898,14.96438 10.02402,30.98497 19.93945,43.55664 7.56933,0.3843 3.83627,9.9909 6.07617,14.81445 18.77354,32.49925 49.29926,56.97494 82.13281,74.39258 37.8627,19.36699 81.19983,21.72085 122.66407,25.31445 31.34066,0.93208 62.47791,-2.98662 93.14258,-9.19726 26.25709,-5.71802 53.7969,-6.39094 79.17773,-15.75391 24.04458,-12.86744 45.97696,-30.41783 62.48633,-52.26758 15.25834,-21.57507 13.4992,-49.45432 10.57226,-74.35156 -1.10906,-15.76267 -4.49537,-31.32607 -7.76367,-46.62891 -0.73101,-3.43908 -4.36705,-4.90535 -4.55273,-8.93164 -11.77635,-21.06999 -30.45112,-37.55195 -49.1543,-52.38281 -20.77049,-13.65308 -46.74948,-16.87614 -70.88672,-17.03125 -4.8392,9.29133 -3.42386,24.13494 -13.65625,30.62695 -8.02771,2.24122 -18.7559,2.63411 -25.14648,-3.44922 -4.82861,-8.12094 -3.98802,-21.75751 -14.2793,-25.32031 -5.13899,-2.66283 -13.26683,2.18752 -8.26563,7.57422 1.61628,9.58078 0.62536,23.29818 -11.04101,25.86133 -10.03552,5.77371 -22.46001,2.20205 -31.82422,-3.19727 -7.96934,-6.50331 -4.09251,-19.37864 -11.13477,-26.01757 -5.58909,-2.55539 -13.87828,0.17371 -11.04687,7.33007 -9.69553,8.97394 -22.42116,14.26714 -31.78125,23.83985 -2.1348,1.58376 -6.71702,5.94083 -5.18945,0.32812 2.13964,-9.38288 12.98913,-13.3987 19.46875,-19.51172 3.84745,-2.37631 20.48753,-9.67477 10.37109,-10.85547 -10.3491,3.1112 -26.96309,-2.59739 -34.44727,7.49415 -5.98609,4.52267 -10.281,13.23214 -18.17773,14.38867 -7.04603,-1.14809 0.95343,-6.93903 2.64453,-9.78516 3.96233,-3.02297 6.63693,-10.81618 -0.2539,-11.97851 -14.42336,-4.24419 -26.48578,-14.43245 -40.57813,-19.80274 -7.29903,-2.95939 -14.67728,-7.23906 -22.77734,-7.0918 z m 375.96484,42.59571 c -0.93617,-0.0204 -1.87358,-0.009 -2.80664,0.0117 -4.15874,0.16561 -8.37285,0.0526 -12.49023,0.5625 -2.6061,1.18434 -6.16208,2.68274 -6.44922,5.98437 0.0251,3.43265 3.66438,4.93637 6.12695,6.51367 4.35241,2.71774 7.44986,6.88293 10.89453,10.57227 2.13258,2.66637 4.75975,5.08866 6.0586,8.29297 0.87659,2.16839 4.05316,3.05597 5.56835,1.04687 1.97117,-3.7109 2.90578,-7.90851 4.61915,-11.75195 0.64459,-1.17817 1.06156,-2.51259 1.04492,-3.83008 1.53761,-2.56823 2.78302,-5.50204 2.92187,-8.51953 -0.24668,-3.88698 -4.11309,-5.95194 -7.30469,-7.25977 -2.58428,-1.21771 -5.37509,-1.56193 -8.18359,-1.62304 z"
         style="opacity:1;fill:#ffffff;fill-opacity:1;stroke:#000000;stroke-width:3.77952766;stroke-linejoin:round;stroke-miterlimit:4;stroke-dasharray:none;stroke-dashoffset:0;stroke-opacity:1"
         inkscape:connector-curvature="0"
         sodipodi:nodetypes="ccccccccccccccccccccccccccccccccccccccccccccccccccccccccccccccccccccc" />
      <g
         id="g4923"
         style="fill:#000000;stroke:#000000;stroke-width:1;stroke-miterlimit:4;stroke-dasharray:none">
        <path
           style="fill:#000000;stroke:#000000;stroke-width:1;stroke-miterlimit:4;stroke-dasharray:none"
           d="m 218.73828,168.32031 c -0.4509,0.11251 -0.88809,0.28683 -1.28516,0.5293 -0.38,0.23988 -0.72877,0.5271 -1.04914,0.84151 -0.24713,0.24795 -0.47239,0.51697 -0.68397,0.79556 -0.21256,0.28911 -0.40498,0.59304 -0.56276,0.91565 -0.29313,0.57487 -0.47686,1.20134 -0.57935,1.83706 -0.11529,0.87233 -0.12331,1.75372 -0.15917,2.63167 -0.11187,3.07713 -0.21448,6.15462 -0.3373,9.23134 -0.084,2.05655 -0.17591,4.11276 -0.26502,6.16908 -0.10642,0.56871 -0.19623,1.14859 -0.42943,1.68253 -0.18654,0.44965 -0.40888,0.88586 -0.68498,1.28753 -0.32161,0.46373 -0.69819,0.88533 -1.04684,1.32833 -0.15733,0.22912 -0.52698,0.25846 -0.7118,0.0473 -0.31878,-0.25577 -0.60699,-0.54668 -0.91169,-0.81863 -0.4281,-0.39493 -0.85048,-0.79822 -1.22983,-1.24095 -0.28192,-0.31797 -0.55983,-0.64231 -0.8863,-0.9163 -0.39069,-0.34423 -0.7934,-0.67477 -1.19988,-1.00008 -0.42348,-0.33696 -0.87346,-0.63957 -1.34096,-0.91196 -0.67708,-0.40737 -1.36638,-0.79431 -2.06389,-1.16554 -0.46031,-0.24371 -0.92363,-0.48277 -1.4037,-0.68565 -0.45778,-0.19993 -0.92223,-0.38406 -1.3934,-0.55007 -0.93857,-0.33634 -1.89697,-0.61426 -2.86087,-0.86778 -0.64519,-0.18061 -1.29864,-0.32969 -1.95557,-0.46072 -0.67589,-0.14335 -1.36074,-0.24152 -2.04743,-0.31578 -1.20604,-0.12388 -2.41687,-0.202 -3.62893,-0.2311 -1.28464,-0.0374 -2.56996,-0.0397 -3.855,-0.0536 -1.94055,-0.0133 -3.88124,-0.0315 -5.82178,-0.009 -0.97608,0.0122 -1.95096,0.0659 -2.92643,0.0992 -1.43316,0.0522 -2.86728,0.0697 -4.30093,0.10333 -1.34121,0.0278 -2.68195,0.0733 -4.02232,0.12754 -1.14346,0.0417 -2.28639,0.0964 -3.4293,0.15026 -1.65073,0.0893 -3.29879,0.22003 -4.94751,0.33956 -5.19082,0.38627 -10.38089,0.78268 -15.57116,1.17632 -0.11356,0.0685 -0.27813,0.10861 -0.36132,-0.0254 -0.088,-0.1048 -0.0576,-0.30245 0.0918,-0.33008 0.33386,-0.18512 0.60976,-0.45292 0.89453,-0.70313 0.20563,-0.24539 0.42894,-0.48544 0.56055,-0.78124 0.0604,-0.27184 -0.0382,-0.56912 -0.24895,-0.75114 -0.19571,-0.19358 -0.41034,-0.36803 -0.62898,-0.53498 -0.24961,-0.1867 -0.51336,-0.36237 -0.80957,-0.46584 -0.30099,-0.0858 -0.62118,-0.0235 -0.90716,0.0862 -0.31501,0.11426 -0.60594,0.28396 -0.89753,0.44698 -0.50211,0.29763 -0.96073,0.66124 -1.41377,1.02746 -0.38614,0.32131 -0.75551,0.66172 -1.1216,1.00548 -0.2469,0.22962 -0.48616,0.46745 -0.73806,0.69167 -0.22377,0.1657 -0.51522,0.24139 -0.79002,0.18616 -0.39764,-0.0532 -0.78755,-0.15019 -1.17649,-0.24627 -0.58784,-0.15579 -1.17682,-0.30989 -1.75131,-0.51065 -0.45409,-0.15566 -0.90554,-0.32124 -1.34352,-0.51821 -0.6779,-0.30936 -1.31775,-0.69356 -1.94736,-1.09028 -0.97784,-0.60755 -1.94539,-1.23805 -2.9818,-1.74331 -0.89904,-0.45073 -1.81467,-0.8672 -2.725,-1.2944 -1.06369,-0.49177 -2.12304,-0.99414 -3.20411,-1.44698 -0.41118,-0.16711 -0.82798,-0.32392 -1.2565,-0.44038 -0.43595,-0.10678 -0.88222,-0.16167 -1.3278,-0.21013 -0.48721,-0.0287 -0.97622,-0.0358 -1.46372,-0.0113 -0.50518,0.0295 -1.01016,0.071 -1.50984,0.15299 -0.46857,0.0706 -0.92791,0.18971 -1.38582,0.30953 -0.22652,0.0687 -0.44313,0.17987 -0.60564,0.35532 -0.28404,0.27041 -0.56783,0.5417 -0.83771,0.82632 -0.17437,0.18043 -0.3219,0.38545 -0.42941,0.61252 -0.21817,0.40119 -0.39777,0.82261 -0.55094,1.25251 -0.15211,0.42588 -0.25478,0.86838 -0.31284,1.31671 -0.0708,0.49734 -0.0859,1.00071 -0.0835,1.50241 0.004,0.77783 0.0813,1.55269 0.14981,2.3268 0.0897,0.83247 0.20928,1.66135 0.34719,2.48714 0.17697,1.0948 0.37281,2.18664 0.58746,3.27468 0.27501,1.38844 0.59602,2.76716 0.90131,4.14913 l 0.30696,1.37303 c 0.0579,0.27541 -0.008,0.57212 -0.17773,0.79687 -0.29325,0.4159 -0.61015,0.81413 -0.93274,1.20747 -0.44581,0.55172 -0.90247,1.09531 -1.38615,1.61432 -0.20078,0.20922 -0.39555,0.42595 -0.62592,0.60371 -0.3147,0.25446 -0.66297,0.46309 -1.00257,0.68198 -0.3385,0.21003 -0.67821,0.41809 -1.01747,0.6269 -0.25286,0.1336 -0.52236,0.25721 -0.8125,0.27148 -0.37296,0.0404 -0.74887,-0.0227 -1.10708,-0.12537 -0.49657,-0.13363 -0.97975,-0.31134 -1.46486,-0.48078 -1.67631,-0.60346 -3.34377,-1.23136 -5.02466,-1.8221 -0.61607,-0.22134 -1.24173,-0.41499 -1.8695,-0.60014 -0.70635,-0.20115 -1.420933,-0.38145 -2.148378,-0.48727 -0.31901,-0.0517 -0.642924,-0.0536 -0.965136,-0.0622 -0.36186,-0.003 -0.724009,0.0119 -1.083331,0.0561 -0.732631,0.0866 -1.454395,0.28835 -2.114414,0.62037 -0.328957,0.16183 -0.648338,0.35136 -0.915252,0.60524 -0.392101,0.35638 -0.695765,0.81802 -0.831276,1.33277 -0.115824,0.41917 -0.187776,0.84904 -0.25736,1.27787 -0.139337,1.004 -0.229224,2.01402 -0.316727,3.02361 -0.03414,0.41314 -0.05887,0.82725 -0.07219,1.24156 -0.01606,0.88542 0.101331,1.76727 0.260519,2.6365 0.161306,0.87986 0.362502,1.75167 0.55784,2.62441 0.206206,0.89345 0.427264,1.78364 0.669014,2.66813 0.210426,0.74328 0.441407,1.48081 0.689261,2.21244 0.371077,1.08233 0.762753,2.15744 1.148286,3.23467 0.305078,0.84146 0.604884,1.68488 0.913248,2.52511 0.103437,0.24098 0.162388,0.55257 -0.02634,0.76902 -0.175252,0.22246 -0.449991,0.32714 -0.683691,0.47432 l -1.44,0.82851 c -0.377594,0.31039 -0.717966,0.66236 -1.074241,0.99631 -0.54989,0.52391 -1.097694,1.05134 -1.607745,1.61454 -0.248656,0.28564 -0.492966,0.57512 -0.726217,0.87353 -0.390628,0.5835 -0.773523,1.17357 -1.104374,1.7935 -0.24018,0.44036 -0.439754,0.90229 -0.616,1.37153 -0.09339,0.26052 -0.100559,0.56586 0.0393,0.81161 0.14094,0.27645 0.399907,0.47347 0.68125,0.59269 0.319962,0.14279 0.681655,0.20728 1.029123,0.14551 0.337257,-0.0457 0.630886,-0.25114 0.851562,-0.50195 l 1.984375,-2.12109 c 0.350261,-0.45704 0.700521,-0.91407 1.050781,-1.3711 0.5345,-0.55151 1.176198,-0.9803 1.798929,-1.42372 0.122362,-0.086 0.244725,-0.17195 0.367087,-0.25792 -0.87876,1.18259 -1.767911,2.35771 -2.619835,3.55994 -0.616121,0.86406 -1.205041,1.74702 -1.800087,2.62561 -0.198062,0.31482 -0.261947,0.70072 -0.219282,1.067 0.03182,0.30653 0.08684,0.61259 0.189985,0.9037 0.09059,0.23882 0.295967,0.44923 0.562167,0.46542 0.248306,0.0312 0.495847,-0.021 0.742521,-0.0435 0.334804,-0.0577 0.679471,-0.12917 0.966797,-0.32032 0.313893,-0.20492 0.546337,-0.5051 0.803501,-0.77259 0.87519,-0.94153 1.731095,-1.9007 2.592983,-2.85436 0.237216,-0.24699 0.494004,-0.47366 0.757105,-0.6925 0.296115,-0.25004 0.602748,-0.4874 0.899145,-0.73719 0.199683,-0.15627 0.542367,-0.14561 0.679687,0.0879 0.41006,0.52296 0.79484,1.06511 1.19346,1.59674 0.54673,0.73684 1.10556,1.46477 1.6831,2.17778 0.66518,0.81786 1.32979,1.63634 2.00869,2.44286 0.4416,0.52214 0.88691,1.04107 1.33975,1.55351 0.36833,0.41935 0.74288,0.83356 1.12832,1.23723 0.46819,0.4784 0.93296,0.96071 1.42384,1.41607 0.69471,0.63466 1.41779,1.23731 2.14449,1.83473 0.34268,0.27351 0.6785,0.55587 1.035,0.8115 0.6694,0.50004 1.36166,0.96858 2.04046,1.45544 0.22281,0.17159 0.49355,0.2833 0.68062,0.49954 0.164,0.21181 0.0806,0.48885 0.01,0.71874 -0.24354,0.82582 -0.47892,1.65407 -0.71712,2.48146 -0.2409,0.85986 -0.48781,1.71808 -0.72437,2.57912 -0.0943,0.34204 -0.15624,0.69684 -0.13675,1.05278 0.009,0.30181 0.0547,0.60706 0.17833,0.88464 0.17747,0.46322 0.50956,0.85321 0.89551,1.15815 0.20966,0.18109 0.4823,0.27495 0.75705,0.28744 0.30302,0.0133 0.60211,-0.0604 0.89055,-0.146 0.53923,-0.16108 1.02797,-0.45116 1.49549,-0.75807 0.25107,-0.16296 0.48312,-0.35396 0.69486,-0.56539 0.35502,-0.33871 0.65996,-0.72703 0.92656,-1.13812 0.4126,-0.63266 0.73956,-1.3149 1.0873,-1.98392 0.10877,-0.25106 0.34689,-0.48121 0.63892,-0.45365 0.29694,0.0184 0.50793,0.25551 0.75976,0.38477 0.3371,0.18662 0.70173,0.31502 1.05627,0.46361 1.18207,0.47742 2.3621,0.96075 3.56003,1.39745 0.8137,0.30177 1.6393,0.57015 2.46474,0.8376 0.75501,0.24018 1.52074,0.44462 2.28331,0.65904 2.34104,0.64238 4.68809,1.26249 7.03409,1.88644 0.21754,0.0679 0.43275,0.20435 0.5183,0.42516 0.0915,0.27283 0.007,0.55953 -0.0378,0.83265 -0.14694,0.76903 -0.31413,1.53523 -0.41627,2.31186 -0.04,0.39753 -0.0518,0.79879 -0.0182,1.19719 0.0237,0.27284 0.10678,0.53813 0.21399,0.78901 0.13041,0.30505 0.31149,0.58859 0.54047,0.8291 0.17708,0.19489 0.3827,0.36407 0.60467,0.50555 0.21474,0.13787 0.44966,0.24536 0.69547,0.31459 0.41053,0.11403 0.8418,0.1204 1.26464,0.0996 0.69718,-0.0421 1.38559,-0.16589 2.07346,-0.28101 0.36492,-0.0641 0.73089,-0.12331 1.09451,-0.1936 0.23354,-0.0223 0.51857,-0.0395 0.65769,-0.259 0.12073,-0.18515 0.12168,-0.41579 0.17825,-0.62382 0.3205,-1.4185 0.66725,-2.83084 1.00976,-4.24414 0.0791,-0.27005 0.2476,-0.52525 0.50153,-0.65811 0.28227,-0.12883 0.6009,-0.10124 0.90277,-0.0997 0.71922,0.0129 1.43653,0.0697 2.1543,0.11328 1.8156,0.16465 3.63093,0.33281 5.44671,0.49527 0.87842,0.0553 1.7566,0.11984 2.6368,0.13877 0.63445,0.0222 1.26936,0.005 1.90378,-0.009 0.83507,-0.0306 1.67057,-0.0575 2.50369,-0.12486 1.36342,-0.10083 2.72503,-0.22882 4.08159,-0.39917 1.05065,-0.12368 2.0994,-0.26349 3.14488,-0.42523 2.35756,-0.35028 4.71014,-0.73278 7.06431,-1.1049 1.3349,-0.2128 2.66924,-0.42943 4.00449,-0.63985 0.2277,-0.0248 0.45946,-0.13144 0.68806,-0.0569 0.26094,0.0824 0.29219,0.39898 0.25949,0.63036 -0.0308,0.34242 -0.0727,0.68398 -0.11147,1.02561 -0.12508,0.93205 -0.26931,1.86133 -0.41725,2.78998 -0.0436,0.25097 -0.0242,0.52954 0.12746,0.74266 0.1494,0.21287 0.36119,0.37066 0.56222,0.53151 0.35942,0.27549 0.73319,0.53291 1.12202,0.76514 0.26031,0.1418 0.51676,0.32081 0.82111,0.34545 0.43237,0.0199 0.85284,-0.10928 1.25977,-0.24023 0.51826,-0.1775 1.01671,-0.40945 1.49609,-0.67383 0.26576,-0.16157 0.52385,-0.34126 0.73484,-0.57193 0.1787,-0.18335 0.33376,-0.39255 0.44859,-0.62188 0.18036,-0.34379 0.30514,-0.71502 0.37656,-1.09636 0.0656,-0.34393 0.0995,-0.69338 0.12818,-1.04206 0.054,-0.7085 0.0525,-1.41964 0.0571,-2.12974 -0.003,-0.38053 -0.005,-0.76113 -0.0129,-1.14155 -0.016,-0.29464 0.2509,-0.50863 0.52734,-0.52344 0.33008,-0.0334 0.65675,-0.0932 0.98569,-0.1362 0.93164,-0.13423 1.86181,-0.2788 2.79119,-0.42763 1.01447,-0.17876 2.02882,-0.35927 3.03643,-0.57396 1.07848,-0.22229 2.14785,-0.48779 3.20717,-0.78814 0.82182,-0.23814 1.63422,-0.50783 2.43845,-0.79969 0.27184,-0.0977 0.54238,-0.19901 0.81451,-0.29586 0.19877,-0.0501 0.43653,0.0269 0.53964,0.21073 0.0895,0.20844 0.0844,0.44604 0.11389,0.66879 0.0378,0.3723 0.0996,0.74212 0.16859,1.10978 0.0655,0.32642 0.14225,0.65201 0.25373,0.96604 0.13892,0.38476 0.31541,0.75557 0.52257,1.1082 0.27414,0.48567 0.56203,0.96873 0.93088,1.38959 0.33659,0.36988 0.75873,0.66793 1.23389,0.82965 0.27356,0.0916 0.56139,0.14029 0.85014,0.13842 0.2589,0.003 0.52083,-0.0276 0.76319,-0.1229 0.45387,-0.15816 0.88362,-0.37798 1.30248,-0.61199 0.42901,-0.23676 0.84073,-0.50827 1.21429,-0.82598 0.33837,-0.29016 0.62702,-0.64276 0.81928,-1.0464 0.21751,-0.43493 0.35146,-0.90585 0.45931,-1.37838 0.11376,-0.5373 0.16773,-1.08564 0.19034,-1.63381 0.0298,-0.87143 -0.0195,-1.74278 -0.0436,-2.61375 -0.0282,-0.79405 -0.0604,-1.58865 -0.0394,-2.3833 0.0179,-0.3427 0.0611,-0.68722 0.17773,-1.01172 0.15481,-0.38856 0.40344,-0.7294 0.66738,-1.05036 0.2834,-0.35094 0.59679,-0.67605 0.89512,-1.01409 1.36202,-1.47449 2.72854,-2.94486 4.08715,-4.42249 0.4758,-0.51908 0.927,-1.06009 1.3777,-1.60095 0.48121,-0.64336 0.94569,-1.30169 1.33789,-2.00391 0.1359,-0.26182 0.26965,-0.52468 0.38736,-0.7953 0.20118,-0.4395 0.3544,-0.89859 0.50081,-1.35862 0.2166,-0.67347 0.4105,-1.35404 0.60011,-2.03553 0.14017,-0.52077 0.26407,-1.04589 0.36439,-1.57585 0.0988,-0.48659 0.18135,-0.9767 0.24171,-1.46954 0.0682,-0.6072 0.10706,-1.21728 0.14203,-1.82715 0.0431,-0.95868 0.0698,-1.91834 0.0663,-2.87802 -0.007,-0.99682 -0.0615,-1.99263 -0.13166,-2.98681 -0.0604,-0.88823 -0.11778,-1.77669 -0.19309,-2.66382 -0.0643,-0.83027 -0.13521,-1.66019 -0.22779,-2.48782 -0.11519,-0.97676 -0.2351,-1.95301 -0.37717,-2.92627 -0.15941,-1.15262 -0.33949,-2.30224 -0.51104,-3.45309 -0.27819,-1.82191 -0.55539,-3.64396 -0.83268,-5.46601 -0.0401,-0.28994 0.0472,-0.583 0.18946,-0.83398 0.86588,-1.68034 1.73177,-3.36068 2.59765,-5.04102 0.31328,-0.83483 0.57667,-1.68702 0.85083,-2.53518 0.95203,-2.97513 2.13651,-5.885 2.86388,-8.92287 0.45158,-1.886 0.73267,-3.81425 0.92374,-5.74413 0.0797,-0.80524 0.0834,-1.61657 0.092,-2.4258 0.003,-0.64332 -0.0315,-1.28623 -0.0724,-1.92803 -0.0427,-0.55536 -0.0957,-1.10977 -0.15475,-1.66362 l -0.13812,-1.35263 c -0.12971,-0.5173 -0.38288,-0.99059 -0.60352,-1.47266 -0.37087,-0.76316 -0.72966,-1.53271 -1.13524,-2.27837 -0.26519,-0.50722 -0.57916,-0.9869 -0.89786,-1.46165 -0.36342,-0.53081 -0.73112,-1.05889 -1.11128,-1.57788 -0.25119,-0.337 -0.50964,-0.66983 -0.79702,-0.97702 -0.26678,-0.23249 -0.61697,-0.34426 -0.9626,-0.38948 -0.36454,-0.052 -0.7331,-0.07 -1.10026,-0.0951 -0.43973,-0.026 -0.87956,-0.0496 -1.32005,-0.0575 -0.20046,-0.007 -0.4009,-0.0119 -0.60147,-0.007 z m 1.65625,2.36133 c -0.0343,0.28949 -0.15146,0.55891 -0.29504,0.80982 -0.35467,0.62637 -0.72413,1.24429 -1.08485,1.86719 l -0.91698,1.57104 c -0.12332,0.21919 -0.1823,0.48969 -0.0859,0.73047 0.0885,0.19616 0.30611,0.33433 0.52275,0.30787 0.27008,-0.0293 0.49673,-0.22182 0.6447,-0.43991 0.16205,-0.23262 0.28479,-0.48999 0.45169,-0.71953 0.19021,-0.21764 0.43096,-0.38996 0.59433,-0.63065 0.0701,-0.1316 0.19765,-0.35036 0.37637,-0.24435 0.21581,0.18643 0.0429,0.4957 -0.0395,0.7086 -0.10999,0.27303 -0.18463,0.55997 -0.30441,0.82881 -0.12606,0.26067 -0.3861,0.41112 -0.6344,0.53674 -0.32923,0.16854 -0.66233,0.33134 -1.01113,0.45595 -0.35361,0.13982 -0.71952,0.26529 -1.03145,0.48855 -0.25838,0.1665 -0.50995,0.34309 -0.76233,0.51846 -0.21446,0.1359 -0.53879,-0.0133 -0.56323,-0.26987 -0.0457,-0.29015 0.006,-0.58537 0.009,-0.87743 0.0371,-0.82108 0.11299,-1.64017 0.22008,-2.45504 0.0455,-0.35452 0.10448,-0.70759 0.19385,-1.05391 0.14549,-0.41473 0.32288,-0.81749 0.50586,-1.21679 0.13803,-0.27622 0.32937,-0.52063 0.52735,-0.75586 0.15797,-0.18234 0.38378,-0.34718 0.63672,-0.32032 0.231,0.0297 0.3959,0.27459 0.31473,0.4986 -0.0645,0.28198 -0.19992,0.54165 -0.33898,0.79325 -0.32203,0.55431 -0.66646,1.09534 -0.98114,1.65397 -0.1245,0.23058 -0.33698,0.46138 -0.27586,0.74364 0.0596,0.2304 0.36538,0.31155 0.54521,0.16587 0.26954,-0.14133 0.47106,-0.37757 0.68205,-0.59105 0.18833,-0.21087 0.38398,-0.42028 0.53641,-0.65881 0.12747,-0.24004 0.20322,-0.51379 0.39453,-0.71484 0.20721,-0.21738 0.38253,-0.4641 0.51758,-0.73242 0.19513,-0.37847 0.39436,-0.75477 0.59765,-1.12891 0.003,-0.0297 0.10606,-0.11036 0.0649,-0.0104 -0.003,0.0471 -0.007,0.0941 -0.0102,0.14121 z m 1.63672,0.78516 c 0.18092,0.16228 0.0321,0.54876 -0.2207,0.50781 -0.29385,-0.0944 -0.0877,-0.54031 0.17383,-0.51172 z m -0.70898,1.21289 c 0.25262,0.0769 -0.0195,0.50472 -0.20118,0.32031 -0.0927,-0.13261 0.041,-0.34703 0.20118,-0.32031 z m 2.06835,0.6582 c 0.25072,0.13749 0.26087,0.45686 0.41797,0.66797 0.1721,0.25074 0.37195,0.48208 0.52856,0.74352 0.11819,0.18167 0.20729,0.46795 0.0241,0.63925 -0.19307,0.16995 -0.46567,0.13036 -0.70202,0.11821 -0.3942,-0.0193 -0.78847,-0.037 -1.18269,-0.0557 -0.20898,0.028 -0.45919,-0.0263 -0.57956,-0.21407 -0.11587,-0.17916 -0.0154,-0.40581 0.10105,-0.55741 0.20208,-0.24277 0.41996,-0.47198 0.63077,-0.70713 0.20648,-0.19842 0.37278,-0.44357 0.60946,-0.60733 0.0465,-0.0244 0.0998,-0.0392 0.15234,-0.0273 z m 1.70899,3.55078 c 0.22751,0.13755 0.32568,0.40393 0.37284,0.65266 0.14062,0.56176 0.22805,1.13488 0.32833,1.70476 0.0706,0.53673 0.12743,1.07579 0.14466,1.61714 0.0191,0.5945 -0.0131,1.18927 -0.005,1.78394 -0.0215,0.27506 0.0594,0.57142 -0.0713,0.82773 -0.11679,0.24663 -0.38385,0.37784 -0.64438,0.40987 -0.28599,0.0442 -0.57673,0.0431 -0.86514,0.0616 -0.63864,0.0278 -1.2776,0.05 -1.91528,0.0962 -0.53564,0.0379 -1.06887,0.10368 -1.60274,0.16032 -1.17761,0.14033 -2.35305,0.29831 -3.52827,0.4572 l -0.94599,0.13092 c -0.19902,0.10467 -0.49991,0.0517 -0.5967,-0.16685 -0.089,-0.26309 -0.007,-0.54779 0.002,-0.81818 0.0502,-0.70248 0.10267,-1.40486 0.16069,-2.10672 0.0395,-0.47177 0.0925,-0.94213 0.14871,-1.41216 0.0611,-0.29081 0.0634,-0.60372 0.21654,-0.86706 0.11825,-0.21547 0.27698,-0.41993 0.48953,-0.54901 0.24629,-0.137 0.52064,-0.21161 0.78458,-0.30643 0.34661,-0.10984 0.68238,-0.24931 1.01563,-0.39396 0.48059,-0.20347 0.96706,-0.40134 1.47827,-0.51412 0.74209,-0.19137 1.49598,-0.33203 2.2507,-0.46305 0.72511,-0.12133 1.45504,-0.21111 2.18516,-0.29599 0.19312,-0.003 0.416,-0.0854 0.59717,-0.009 z m -104.54297,5.5625 c 0.76202,0.0775 1.51437,0.24602 2.2382,0.49607 0.71784,0.24436 1.42486,0.51991 2.12064,0.82131 1.28109,0.56603 2.52928,1.20255 3.78661,1.81871 0.48622,0.24014 0.9733,0.47912 1.45506,0.72788 0.43463,0.24426 0.84253,0.53221 1.25673,0.80887 0.52706,0.35641 1.05455,0.71639 1.62493,1.00118 0.59029,0.30544 1.19735,0.57787 1.81685,0.81855 0.70068,0.27496 1.41293,0.51914 2.12872,0.75157 0.21485,0.0872 0.45982,0.0991 0.65429,0.23438 0.23642,0.13991 0.19751,0.47347 0.0332,0.65429 -0.90568,1.09415 -1.80863,2.19054 -2.70899,3.28907 -0.14834,0.20577 -0.19835,0.48938 -0.0994,0.72661 0.0823,0.23455 0.30034,0.38663 0.52127,0.47846 0.26911,0.10992 0.54939,0.19062 0.83574,0.24083 0.25661,0.0429 0.51842,0.12676 0.77911,0.0649 0.22087,-0.0431 0.41236,-0.17366 0.56471,-0.33523 0.71565,-0.66945 1.39017,-1.38091 2.0846,-2.07199 0.85395,-0.8543 1.70123,-1.71524 2.55469,-2.57001 0.15993,-0.16823 0.35336,-0.31232 0.58099,-0.37173 0.27752,-0.0837 0.57081,-0.0833 0.85738,-0.10872 1.38469,-0.10395 2.77169,-0.17267 4.15755,-0.25863 l 2.4778,-0.14805 c 0.0477,0.24778 -0.21464,0.39237 -0.41406,0.45703 -0.31989,0.10504 -0.62154,0.25826 -0.92363,0.4054 -0.49312,0.2519 -0.96921,0.53625 -1.42703,0.84765 -0.80996,0.53741 -1.553,1.16622 -2.31199,1.77146 -0.81232,0.65524 -1.62464,1.31048 -2.43696,1.96573 -0.21487,0.19388 -0.41462,0.40677 -0.57019,0.65186 -0.21983,0.32098 -0.36015,0.68804 -0.46683,1.06002 -0.0875,0.30633 -0.13557,0.62371 -0.14691,0.94195 0.004,0.28014 -0.0365,0.60747 0.17026,0.83054 0.16939,0.16461 0.42918,0.17148 0.64432,0.11032 0.28108,-0.0756 0.54334,-0.21091 0.77951,-0.37985 0.21571,-0.17224 0.39353,-0.38561 0.59149,-0.57701 0.486,-0.49778 0.98306,-0.98704 1.5272,-1.42175 0.38333,-0.31473 0.77018,-0.62504 1.16498,-0.92529 0.48246,-0.35815 0.96436,-0.71756 1.4597,-1.05786 1.07472,-0.72455 2.19508,-1.37761 3.28905,-2.07208 0.32002,-0.20852 0.65323,-0.40747 0.91633,-0.68874 0.20776,-0.19924 0.39267,-0.45581 0.3971,-0.75481 0.0257,-0.32511 -0.17189,-0.61336 -0.18374,-0.9341 -0.004,-0.29705 0.27303,-0.50711 0.54125,-0.56174 0.39345,-0.0979 0.7962,-0.15468 1.20122,-0.17192 0.26071,-0.007 0.54753,-0.0611 0.78682,0.0696 0.18599,0.10818 0.3015,0.30625 0.334,0.51567 0.10317,0.42271 0.18196,0.85103 0.27699,1.27565 0.14876,0.71764 0.32207,1.43032 0.52246,2.13526 0.0945,0.32772 0.20091,0.65161 0.31441,0.97322 0.12823,0.35427 0.26394,0.70738 0.43886,1.0416 0.18874,0.34783 0.42908,0.66745 0.71664,0.93973 0.31579,0.3067 0.68119,0.56303 1.07942,0.75111 0.28905,0.13682 0.59735,0.22635 0.90292,0.3181 0.40822,0.11339 0.81949,0.21585 1.23497,0.29913 0.73514,0.16021 1.47208,0.31246 2.21328,0.44225 0.32775,0.067 0.6674,0.0798 0.99746,0.0214 0.48934,-0.0812 0.96248,-0.23673 1.43148,-0.39475 0.6955,-0.2502 1.38518,-0.52269 2.03907,-0.86914 0.26468,-0.15014 0.52486,-0.30895 0.76469,-0.49699 0.27902,-0.2043 0.52847,-0.44929 0.72974,-0.73095 0.17162,-0.22276 0.3156,-0.46655 0.42559,-0.72548 0.13098,-0.29717 0.2045,-0.61505 0.27887,-0.92996 0.11805,-0.56235 0.20038,-1.1316 0.25687,-1.70329 0.0466,-0.47895 0.10599,-0.95867 0.0989,-1.44068 -0.0102,-0.34352 -0.0811,-0.69333 -0.26545,-0.98791 -0.15457,-0.25551 -0.38235,-0.45782 -0.62518,-0.62732 -0.16587,-0.10565 -0.36604,-0.20462 -0.56641,-0.13867 -0.20223,0.0515 -0.33362,0.25261 -0.30833,0.45799 0.0101,0.25932 0.11681,0.50151 0.14818,0.75771 0.0523,0.28455 -0.0592,0.57373 -0.22628,0.80095 -0.28916,0.43094 -0.62961,0.82401 -0.95472,1.22764 -1.07389,1.2925 -2.15003,2.58313 -3.22721,3.87289 -0.25607,0.23973 -0.60581,0.37659 -0.95703,0.36914 -0.51064,-0.005 -1.01201,-0.11483 -1.50784,-0.22666 -0.4085,-0.0988 -0.81386,-0.21192 -1.21144,-0.34846 -0.46603,-0.16811 -0.92831,-0.3577 -1.35032,-0.61958 -0.22553,-0.14803 -0.44382,-0.30798 -0.64915,-0.48303 -0.21114,-0.15286 -0.35193,-0.43282 -0.22937,-0.68524 0.14576,-0.26343 0.34742,-0.49353 0.5159,-0.74332 0.97824,-1.35886 1.95487,-2.71892 2.92433,-4.08405 0.13529,-0.2045 0.29416,-0.42257 0.53914,-0.49911 0.27958,-0.12348 0.5922,-0.10169 0.8901,-0.1237 l 1.68608,-0.0911 c -1.51368,1.91536 -3.02735,3.83073 -4.54102,5.74609 -0.13131,0.22397 -0.28991,0.44526 -0.32617,0.70899 0.16246,0.22552 0.49593,0.28553 0.73292,0.14481 0.25396,-0.13293 0.46037,-0.33895 0.66028,-0.54056 0.30662,-0.33485 0.53027,-0.73314 0.79903,-1.09699 0.21118,-0.28919 0.44752,-0.55912 0.67309,-0.83708 1.03595,-1.22091 2.10445,-2.41362 3.16007,-3.61745 0.22211,-0.19305 0.51234,-0.27124 0.78515,-0.36328 0.59762,-0.10919 1.20556,-0.13891 1.81001,-0.1883 0.72602,-0.043 1.45234,-0.0865 2.17986,-0.0903 0.31206,-10e-4 0.62397,0.0116 0.93592,0.0188 0.27413,0.0134 0.54468,0.0987 0.76953,0.25782 0.25604,0.16664 0.46167,0.41059 0.57657,0.69418 0.14034,0.30209 0.24206,0.62025 0.34901,0.93518 0.25287,0.79113 0.48672,1.58825 0.73921,2.37946 0.15026,0.45681 0.31504,0.91026 0.53182,1.34025 0.17935,0.37265 0.39893,0.72995 0.68615,1.02978 0.25879,0.26809 0.53968,0.52271 0.87055,0.69914 0.33885,0.19284 0.72031,0.28996 1.09676,0.3792 0.9692,0.21512 1.97034,0.22732 2.95727,0.16548 0.67272,-0.0428 1.34193,-0.16352 1.98179,-0.37737 0.24554,-0.0823 0.49758,-0.16567 0.70305,-0.32929 0.22685,-0.17225 0.38894,-0.4116 0.54759,-0.64423 0.21265,-0.33357 0.39424,-0.68618 0.56783,-1.04132 0.20188,-0.41076 0.38442,-0.83096 0.54631,-1.25906 0.31039,-0.79845 0.56471,-1.62025 0.72824,-2.46181 0.0751,-0.38854 0.14395,-0.77848 0.1932,-1.17125 0.052,-0.26555 0.034,-0.56256 0.20785,-0.78756 0.16324,-0.22252 0.45832,-0.24682 0.71196,-0.24774 1.07928,0.0233 2.15885,0.0462 3.23726,0.0973 0.92459,0.0464 1.84721,0.12804 2.76672,0.23468 0.85837,0.10558 1.71392,0.23369 2.56467,0.38936 0.58914,0.0996 1.17314,0.22752 1.7547,0.36405 0.51011,0.12303 1.01775,0.25754 1.51742,0.41816 0.48928,0.1634 0.96937,0.35201 1.44716,0.54605 0.91223,0.36439 1.81803,0.74476 2.72341,1.12574 0.4148,0.17765 0.81988,0.38287 1.18864,0.64445 0.45986,0.30687 0.89041,0.6548 1.32149,1.00021 0.78008,0.63075 1.5126,1.31699 2.25964,1.98582 1.09345,0.98844 2.18514,1.97882 3.2713,2.97527 0.63009,0.57439 1.25054,1.16001 1.84296,1.77335 0.34615,0.36016 0.68018,0.73166 1.00229,1.11347 0.44523,0.53252 0.85347,1.0944 1.26908,1.64997 0.27546,0.37422 0.5508,0.74853 0.81114,1.13352 0.47108,0.68964 0.91896,1.39513 1.34739,2.11197 0.21651,0.37144 0.3977,0.76174 0.56402,1.15783 0.17544,0.40855 0.35364,0.81624 0.52024,1.22837 0.17936,0.48626 0.30618,0.98944 0.46267,1.48313 0.23021,0.75163 0.42902,1.51306 0.58379,2.2839 0.17311,0.80614 0.3229,1.61704 0.46009,2.43001 0.11223,0.65373 0.21428,1.3092 0.31737,1.96441 0.15213,1.02975 0.28497,2.06233 0.39802,3.09709 0.15051,1.35127 0.264,2.70632 0.36489,4.06211 0.10153,1.30669 0.18857,2.61519 0.2171,3.92575 0.0189,0.82036 0.005,1.64097 -6.8e-4,2.4614 -0.008,0.3794 -0.0141,0.75938 -0.0434,1.13778 -0.0587,0.61964 -0.18046,1.23099 -0.28958,1.84316 -0.20129,1.0104 -0.41018,2.01991 -0.66966,3.01718 -0.12442,0.44896 -0.26676,0.89298 -0.43339,1.32813 -0.17028,0.46611 -0.38288,0.91616 -0.62815,1.34736 -0.23831,0.41916 -0.51743,0.81292 -0.7933,1.20781 -0.60078,0.83882 -1.25439,1.63858 -1.9338,2.41468 -0.5016,0.58007 -1.01173,1.15283 -1.53019,1.71786 -0.75892,0.80321 -1.5407,1.5843 -2.3193,2.3683 l -0.80745,0.80571 c -0.67405,0.49653 -1.3333,1.01266 -1.99804,1.52149 -0.45955,0.32102 -0.9309,0.62461 -1.40949,0.91639 -0.41145,0.26042 -0.8369,0.50014 -1.23114,0.78673 -0.27039,0.21189 -0.4984,0.47077 -0.74604,0.70759 -0.18756,0.18719 -0.38318,0.36602 -0.58599,0.53655 -0.43951,0.3 -0.93068,0.51206 -1.38281,0.79102 -0.4496,0.29263 -0.87523,0.62563 -1.3542,0.87044 -0.8056,0.3806 -1.63472,0.70787 -2.46044,1.04154 -0.66835,0.26382 -1.3611,0.46238 -2.0629,0.61475 -0.57266,0.13077 -1.15136,0.23305 -1.72907,0.33853 -1.77179,0.30947 -3.54708,0.59848 -5.32061,0.89772 -6.54927,1.09718 -13.09918,2.19054 -19.64798,3.29047 -1.25013,0.20887 -2.49953,0.42272 -3.75012,0.62849 -0.48057,0.0636 -0.96482,0.0938 -1.44787,0.13221 -1.22776,0.0936 -2.45677,0.16977 -3.68596,0.24166 -0.65245,0.0413 -1.30587,0.0628 -1.95952,0.0717 -0.98169,0.0218 -1.96387,0.0119 -2.94513,-0.0236 -1.18009,-0.043 -2.35819,-0.13074 -3.53303,-0.24906 -2.88863,-0.28423 -5.7771,-0.57007 -8.66567,-0.85493 -0.81678,-0.10166 -1.6343,-0.19983 -2.44589,-0.33816 -0.75427,-0.12104 -1.50246,-0.27653 -2.25529,-0.40598 -0.4363,-0.0424 -0.87372,0.0193 -1.31054,0.0117 -0.34541,-0.0243 -0.68372,-0.1044 -1.02213,-0.17369 -0.95091,-0.19991 -1.90024,-0.40731 -2.84762,-0.62329 -1.23931,-0.28714 -2.47169,-0.60347 -3.69971,-0.93534 -1.05224,-0.29093 -2.10425,-0.58679 -3.13414,-0.9504 -0.67044,-0.24038 -1.3274,-0.51617 -1.98436,-0.7907 -0.93147,-0.39781 -1.85575,-0.81215 -2.78139,-1.22328 -0.77451,-0.35224 -1.55839,-0.68719 -2.30704,-1.0929 -0.39552,-0.21863 -0.77711,-0.46154 -1.14353,-0.72603 -1.49639,-1.06434 -2.97654,-2.15126 -4.46122,-3.23181 -0.84122,-0.61332 -1.67986,-1.23025 -2.51472,-1.85219 -0.81237,-0.60606 -1.61541,-1.22482 -2.39839,-1.86852 -0.41403,-0.33642 -0.81173,-0.69217 -1.20759,-1.04956 -0.40623,-0.37886 -0.78663,-0.78403 -1.16669,-1.18877 -0.40043,-0.43437 -0.79147,-0.87728 -1.17459,-1.327 -0.84903,-1.00207 -1.67764,-2.0214 -2.49245,-3.05146 -0.68813,-0.88054 -1.37834,-1.75961 -2.05162,-2.65158 -0.19756,-0.2627 -0.40091,-0.52259 -0.56048,-0.81095 -0.15224,-0.26027 -0.28853,-0.52984 -0.41366,-0.8041 -0.10975,-0.25548 -0.12795,-0.53924 -0.10363,-0.81336 0.0319,-0.55928 0.0742,-1.11836 0.0763,-1.67882 -0.0296,-0.30687 -0.0792,-0.61581 -0.19727,-0.90235 -0.13625,-0.29036 -0.42999,-0.49439 -0.74704,-0.53261 -0.25971,-0.0405 -0.52577,0.002 -0.784209,-0.0494 -0.307246,-0.0648 -0.501032,-0.33537 -0.608444,-0.61166 -0.284731,-0.60152 -0.546412,-1.21371 -0.820527,-1.82012 -0.599202,-1.33646 -1.18939,-2.67693 -1.777051,-4.01848 -0.270395,-0.62608 -0.53755,-1.25384 -0.772214,-1.89439 -0.279975,-0.75713 -0.54073,-1.52164 -0.768991,-2.29604 -0.280847,-0.90382 -0.516326,-1.8209 -0.746106,-2.73878 -0.173957,-0.68715 -0.323857,-1.38023 -0.46378,-2.07501 -0.08443,-0.43506 -0.158803,-0.87184 -0.225214,-1.31 -0.04651,-0.34812 -0.08813,-0.69722 -0.122617,-1.04676 -0.03481,-0.32684 -0.04263,-0.65534 -0.04667,-0.98375 -0.0041,-0.39779 -0.02353,-0.79523 -0.03269,-1.19283 -0.0065,-0.29205 0.04597,-0.58159 0.125947,-0.86153 0.138851,-0.5398 0.314341,-1.06927 0.48496,-1.59961 0.195728,-0.58544 0.40756,-1.17289 0.741859,-1.69574 0.23156,-0.34672 0.509675,-0.67053 0.859669,-0.90217 0.286736,-0.18237 0.611672,-0.30657 0.950275,-0.34437 0.467397,-0.0712 0.942844,-0.0481 1.412297,-0.0121 0.291894,0.0257 0.582994,0.0568 0.868922,0.12311 0.481546,0.0973 0.957786,0.21977 1.429814,0.35546 0.62793,0.19741 1.25115,0.40958 1.87213,0.62761 1.35791,0.51061 2.6901,1.08592 4.03904,1.61922 0.45439,0.17687 0.90897,0.35371 1.37271,0.50494 0.67425,0.22906 1.362,0.41957 2.06036,0.55956 0.32777,0.0668 0.65653,0.12862 0.98469,0.19348 0.35237,0.0959 0.66318,0.32829 0.86328,0.63281 l 0.88086,1.25196 c 0.27613,0.30596 0.53551,0.64035 0.89258,0.85742 0.21488,0.14163 0.4609,0.26222 0.72461,0.2539 0.31613,-0.0496 0.48969,-0.38564 0.46875,-0.68359 0.0112,-0.35162 -0.0543,-0.70029 -0.14466,-1.03855 -0.12051,-0.42285 -0.30966,-0.82271 -0.52722,-1.20364 -0.10266,-0.2239 -0.34802,-0.4251 -0.30078,-0.68945 0.11421,-0.2152 0.46479,-0.10095 0.47304,0.13085 0.0998,0.28485 0.23132,0.56143 0.45896,0.76701 0.18703,0.20752 0.38593,0.40831 0.53089,0.64901 0.12968,0.20057 0.28282,0.41377 0.52146,0.48906 0.31123,0.0867 0.6559,-0.0224 0.88937,-0.23835 0.19305,-0.17712 0.33818,-0.40787 0.40873,-0.6606 0.0811,-0.25694 0.0804,-0.5342 0.0183,-0.79518 -0.0926,-0.42511 -0.26112,-0.82838 -0.43012,-1.22765 -0.14438,-0.31865 -0.28877,-0.6373 -0.43316,-0.95595 -0.11623,-0.22734 -0.33566,-0.45336 -0.28906,-0.72461 0.23568,0.0283 0.36458,0.27491 0.48633,0.45703 0.48045,0.62075 0.97131,1.23339 1.45508,1.85157 0.17612,0.20198 0.47268,0.31184 0.73242,0.2207 0.24055,-0.0887 0.42285,-0.30379 0.49023,-0.54883 0.0971,-0.29305 0.0843,-0.6058 0.0801,-0.91015 -0.0631,-0.44444 -0.25991,-0.85885 -0.51172,-1.22657 -0.37161,-0.57021 -0.75422,-1.13336 -1.14453,-1.69083 -0.16318,-0.1913 -0.28916,-0.4696 -0.16406,-0.71346 0.13801,-0.24544 0.34495,-0.44207 0.52252,-0.6582 0.16327,-0.20971 0.39809,-0.4075 0.40085,-0.69474 0.007,-0.27586 -0.1207,-0.53196 -0.18311,-0.7965 -0.30385,-1.03304 -0.60824,-2.06606 -0.8894,-3.10554 -0.2274,-0.84757 -0.44799,-1.69742 -0.62661,-2.5568 -0.33897,-1.58461 -0.60393,-3.18731 -0.73217,-4.80355 -0.0741,-0.86206 -0.10889,-1.72898 -0.0643,-2.59366 0.0402,-0.5668 0.0623,-1.14026 0.20313,-1.69336 0.10527,-0.36675 0.25047,-0.72243 0.44405,-1.05166 0.19771,-0.33983 0.44065,-0.65394 0.72356,-0.92724 0.28348,-0.2835 0.59939,-0.53787 0.95348,-0.72813 0.44084,-0.24708 0.91953,-0.43281 1.41944,-0.51509 0.34069,-0.0579 0.68678,-0.0762 1.03173,-0.0884 z m 102.24024,3.08985 c 0.23522,0.19729 0.56015,0.26643 0.85937,0.21289 0.33683,-0.0337 0.6764,-0.0199 1.01129,0.0268 0.24928,0.0453 0.53077,0.0263 0.75238,0.15683 0.18279,0.1958 0.0368,0.46137 0.0161,0.68674 -0.0374,0.31008 -0.0326,0.62377 -0.0752,0.93348 -0.10027,0.83481 -0.2876,1.65708 -0.53078,2.46137 -0.20566,0.71303 -0.44182,1.41675 -0.6708,2.12251 -0.0863,0.22193 -0.13033,0.46765 -0.24333,0.67458 -0.1829,0.21483 -0.49727,0.23959 -0.75196,0.1585 -0.70988,-0.14724 -1.41711,-0.30734 -2.13001,-0.43975 -0.83243,-0.15679 -1.67527,-0.27805 -2.52384,-0.28375 -0.76193,-0.005 -1.52281,0.0435 -2.2836,0.0789 -0.25336,0.012 -0.51638,-0.14631 -0.58951,-0.3955 -0.0842,-0.25503 -0.008,-0.52585 0.068,-0.77287 0.0573,-0.25759 0.26842,-0.44023 0.49788,-0.54871 0.22378,-0.11624 0.45068,-0.23768 0.62847,-0.42032 0.28739,-0.28073 0.54268,-0.59207 0.80497,-0.89589 0.58337,-0.70111 1.1629,-1.40542 1.74056,-2.11124 0.15251,-0.21254 0.25781,-0.45865 0.31582,-0.71319 0.0486,-0.22776 0.0446,-0.59262 0.34629,-0.62666 0.25413,0.0271 0.27523,0.37483 0.13475,0.53774 -0.15248,0.25552 -0.32065,0.50145 -0.46512,0.76208 -0.61318,1.03418 -1.22637,2.06835 -1.83955,3.10253 -0.14675,0.29477 -0.26401,0.60299 -0.37109,0.91406 0.0146,0.21875 0.1635,0.42884 0.37382,0.49827 0.25195,0.0798 0.52802,-0.002 0.74738,-0.13506 0.24079,-0.11889 0.36936,-0.36762 0.48229,-0.59807 0.31514,-0.63326 0.69875,-1.22872 1.07034,-1.82959 0.36061,-0.53451 0.76446,-1.03754 1.15565,-1.5495 0.22111,-0.2793 0.39081,-0.59399 0.5742,-0.89829 0.1715,-0.2825 0.33177,-0.5733 0.53467,-0.83508 0.0879,-0.10796 0.20951,-0.28457 0.36048,-0.27377 z m -6.75196,0.72265 c 0.0931,0.19741 0.33394,0.26127 0.53617,0.25186 0.24772,-0.0139 0.48607,-0.10797 0.73532,-0.10147 0.25904,-0.006 0.3634,0.31455 0.23422,0.50811 -0.20411,0.32449 -0.44423,0.62536 -0.67325,0.93269 -0.18754,0.23746 -0.35718,0.49133 -0.55582,0.71861 -0.13735,0.11618 -0.34928,0.0739 -0.47048,-0.0453 -0.14787,-0.14063 -0.12446,-0.36301 -0.12583,-0.54869 0.0151,-0.36843 0.0456,-0.73632 0.0769,-1.10372 0.0406,-0.20988 0.006,-0.46222 0.15681,-0.63161 0.0257,-0.0168 0.0943,-0.057 0.0857,0.019 z m 6.83008,0.37695 c -0.0718,0.2365 -0.29207,0.37366 -0.46899,0.5266 -0.22032,0.17818 -0.28587,0.46885 -0.43582,0.69785 -0.40734,0.63149 -0.8267,1.25562 -1.27683,1.85759 -0.16108,0.2305 -0.33138,0.45566 -0.53125,0.65429 -0.16639,0.17765 -0.32884,0.37865 -0.37305,0.625 -0.0288,0.2684 0.002,0.55985 0.16602,0.78321 0.17925,0.18322 0.49132,0.15189 0.67383,-0.01 0.27072,-0.2182 0.50798,-0.47404 0.75973,-0.71319 0.66147,-0.64639 1.32294,-1.29277 1.98441,-1.93915 0.19082,-0.17298 0.43707,-0.3158 0.53125,-0.56836 0.0939,-0.26533 0.14221,-0.54428 0.23164,-0.81119 0.0749,-0.26523 0.22249,-0.54379 0.13359,-0.82358 -0.0982,-0.2728 -0.39317,-0.39055 -0.65908,-0.42762 -0.22748,-0.0363 -0.45888,-0.0358 -0.68857,-0.045 -0.0156,0.0644 -0.0313,0.1289 -0.0469,0.19335 z m -38.81445,1.17579 c 0.0154,0.36405 -0.0716,0.72117 -0.11774,1.08012 -0.0621,0.4663 -0.1266,0.93251 -0.2184,1.39409 -0.0565,0.27454 -0.11547,0.54935 -0.21269,0.8129 -0.17295,0.47446 -0.41165,0.92059 -0.64215,1.36871 -0.22428,0.42084 -0.45687,0.83771 -0.71677,1.23777 -0.15313,0.23032 -0.28742,0.48688 -0.51414,0.65445 -0.23533,0.17961 -0.53895,0.22409 -0.82485,0.25749 -0.44649,0.0472 -0.89631,0.0394 -1.34457,0.0346 -0.55989,-0.0189 -1.12011,-0.0381 -1.67943,-0.0661 -0.24086,0.003 -0.49068,-0.18191 -0.45577,-0.44154 0.0215,-0.28142 0.25156,-0.47845 0.39879,-0.70053 0.45993,-0.61543 0.9358,-1.21903 1.42479,-1.8116 0.47561,-0.57303 0.96648,-1.13324 1.44705,-1.70201 0.13904,-0.17725 0.3494,-0.33395 0.38556,-0.56761 0.0112,-0.21855 -0.13339,-0.41908 -0.31703,-0.52461 -0.22581,-0.099 -0.39145,-0.43924 -0.15937,-0.61979 0.16292,-0.1599 0.40271,-0.18025 0.61833,-0.19971 0.96799,-0.087 1.93621,-0.17135 2.90495,-0.24964 l 0.0232,0.0425 z m -8.8125,0.125 c 0.26569,0.0143 0.6088,0.0157 0.76147,0.27373 0.0913,0.19271 0.008,0.41345 -0.0987,0.58163 -0.24515,0.34717 -0.49773,0.68924 -0.7526,1.0294 -0.23172,-0.0653 -0.35806,-0.29496 -0.42849,-0.50854 -0.0879,-0.30352 -0.18999,-0.60319 -0.26096,-0.91138 -0.0357,-0.26937 0.23838,-0.46058 0.48242,-0.4707 0.0991,-0.005 0.19788,0.003 0.29688,0.006 z m 3.03515,0.12109 c 0.0242,0.23873 -0.0983,0.45954 -0.23848,0.64273 -0.4676,0.63196 -0.92578,1.27159 -1.42484,1.87944 -0.33713,0.4088 -0.67644,0.81581 -1.01441,1.22392 -0.23338,0.15789 -0.53875,-0.24231 -0.31736,-0.42287 0.21764,-0.2545 0.4556,-0.49101 0.6651,-0.75264 0.66337,-0.78284 1.33128,-1.56178 1.99991,-2.34011 0.10028,-0.0997 0.20634,-0.19354 0.32032,-0.27735 z m -18.57031,0.57617 c 0.28061,0.1633 0.16163,0.55992 0.014,0.77833 -0.28636,0.47223 -0.5898,0.93405 -0.88362,1.4017 -0.21292,0.33369 -0.42956,0.66499 -0.644,0.99771 -0.16794,0.19477 -0.23482,0.46755 -0.44922,0.62304 -0.2851,0.0272 -0.38755,-0.31702 -0.41285,-0.54292 -0.0818,-0.54082 -0.1229,-1.08674 -0.1862,-1.62988 l -0.0982,-0.91509 c 0.009,-0.27077 0.2338,-0.52108 0.51009,-0.52912 0.25201,-0.0368 0.50695,-0.051 0.76013,-0.0787 0.42863,-0.0372 0.85749,-0.0717 1.28643,-0.10511 z m 6.56641,0.55274 c -0.26169,0.13609 -0.47351,0.34695 -0.66407,0.56836 -0.49989,0.7096 -0.96449,1.44298 -1.43308,2.17337 -0.53923,0.85172 -1.07847,1.70343 -1.6177,2.55514 -0.12593,0.24678 -0.35807,0.43899 -0.41211,0.7207 -0.002,0.23471 0.33582,0.33178 0.46355,0.13385 0.22431,-0.17769 0.39207,-0.41316 0.58723,-0.62017 0.66214,-0.74398 1.30577,-1.50527 1.90954,-2.29757 0.47584,-0.62499 0.92832,-1.26795 1.35316,-1.92869 0.13274,-0.20487 0.26253,-0.42352 0.28468,-0.67217 0.019,-0.20006 -0.0344,-0.42486 -0.19581,-0.55665 -0.0752,-0.0619 -0.17813,-0.10015 -0.27539,-0.0762 z m 16.47265,0.1875 c -0.37574,0.13492 -0.67666,0.41531 -0.92207,0.72229 -0.28404,0.32248 -0.53687,0.6707 -0.79043,1.01708 -0.40129,0.58713 -0.77675,1.19157 -1.12759,1.81014 -0.11907,0.22331 -0.3224,0.47613 -0.22631,0.7415 0.0782,0.17491 0.316,0.23978 0.46283,0.10905 0.20102,-0.12656 0.34004,-0.32571 0.50722,-0.49052 0.63032,-0.68854 1.25242,-1.38469 1.85481,-2.09787 0.22114,-0.25819 0.44228,-0.51638 0.66342,-0.77456 0.13572,-0.20486 0.20731,-0.47036 0.12305,-0.70899 -0.0794,-0.21805 -0.31436,-0.36315 -0.54493,-0.32812 z m -6.48242,3.51367 c 0.27016,0.0104 0.38958,0.41158 0.18359,0.57812 -0.15682,0.12638 -0.40029,0.10728 -0.55078,-0.0195 -0.19077,-0.14052 -0.12618,-0.45222 0.0977,-0.52148 0.0857,-0.035 0.1776,-0.0474 0.26953,-0.0371 z m -8.31641,0.2539 c 0.0879,0.20303 0.051,0.43818 -0.0439,0.6317 -0.1243,0.22519 -0.25623,0.44732 -0.39356,0.66518 -0.26085,0.40668 -0.62883,0.74497 -1.05775,0.96787 -0.43741,0.23196 -0.87795,0.45795 -1.3192,0.68252 0.0861,-0.2905 0.3015,-0.51529 0.50039,-0.73402 0.52483,-0.54534 1.04784,-1.09298 1.60127,-1.60967 0.2157,-0.2054 0.43316,-0.40923 0.66397,-0.59772 l 0.0234,-0.008 z m 52.23243,0.78711 c 0.3246,0.0811 0.6484,0.16704 0.96505,0.27522 0.45155,0.16717 0.88466,0.38226 1.29667,0.63103 0.19286,0.12031 0.36345,0.29204 0.43104,0.51404 0.0887,0.23403 0.0518,0.4916 0.003,0.7301 -0.0905,0.36209 -0.20668,0.71931 -0.37458,1.05341 -0.13192,0.25983 -0.26037,0.52511 -0.31487,0.81378 -0.0687,0.2646 -0.13085,0.53206 -0.23633,0.78516 -0.29557,0.7845 -0.59115,1.56901 -0.88672,2.35351 0.009,0.20631 -0.13,0.45023 -0.35156,0.46875 -0.24306,-0.015 -0.36378,-0.27395 -0.46979,-0.46011 -0.12081,-0.23108 -0.28744,-0.43391 -0.43743,-0.64632 -0.35771,-0.47744 -0.74447,-0.93214 -1.14061,-1.37796 -0.4777,-0.53784 -0.94909,-1.08179 -1.44369,-1.60421 -0.31007,-0.30925 -0.634,-0.60539 -0.97714,-0.87754 -0.50296,-0.38072 -1.03443,-0.72102 -1.55087,-1.08268 -0.20754,-0.14512 -0.33481,-0.4317 -0.22466,-0.67399 0.0934,-0.23437 0.3267,-0.35853 0.53716,-0.47055 0.23947,-0.12146 0.49296,-0.21435 0.75424,-0.27611 0.45228,-0.10966 0.92053,-0.1082 1.38247,-0.136 l 2.80274,-0.0566 c 0.0788,0.0124 0.15755,0.0247 0.23633,0.0371 z m -93.05078,8.28321 c -0.29722,0.0957 -0.57555,0.2394 -0.85272,0.3811 -0.40896,0.21821 -0.79701,0.49281 -1.09064,0.85522 -0.33659,0.43559 -0.51313,0.98414 -0.52726,1.53221 -0.009,0.26096 0.014,0.52231 0.0682,0.77778 0.0419,0.22546 0.10425,0.46045 0.26377,0.63337 0.21982,0.23558 0.54029,0.33058 0.8418,0.41211 0.4486,0.10842 0.91841,0.12813 1.375,0.0625 0.35808,-0.0644 0.70526,-0.1867 1.02734,-0.35547 0.22528,-0.10926 0.41708,-0.28066 0.54821,-0.49428 0.13455,-0.21611 0.1968,-0.46794 0.25463,-0.71322 0.0664,-0.27906 0.0855,-0.56656 0.0891,-0.85258 3e-5,-0.28372 -0.0275,-0.57313 -0.13417,-0.83835 -0.10576,-0.23851 -0.28373,-0.43675 -0.48769,-0.59618 -0.30182,-0.27077 -0.62727,-0.5144 -0.96934,-0.73195 -0.12532,-0.062 -0.26675,-0.0941 -0.40625,-0.0723 z m 1.74218,10.74609 c -0.24439,0.0593 -0.43555,0.27564 -0.48305,0.51989 -0.0518,0.25997 -0.0159,0.52717 0.002,0.78896 0.0498,0.61605 0.10937,1.23492 0.0671,1.85326 -0.0284,0.30915 -0.14919,0.62045 -0.38364,0.83128 -0.21627,0.19956 -0.54042,0.27261 -0.82121,0.18328 -0.35249,-0.088 -0.65159,-0.30934 -0.92688,-0.53731 -0.53753,-0.43835 -1.06778,-0.88608 -1.62347,-1.30158 -0.23591,-0.18221 -0.47413,-0.36137 -0.71355,-0.53895 -0.19322,-0.12574 -0.44478,-0.16952 -0.66406,-0.0898 -0.25292,0.10138 -0.44671,0.30958 -0.59375,0.5332 -0.15614,0.23193 -0.27036,0.51635 -0.20117,0.79883 0.0914,0.32539 0.29559,0.60078 0.46038,0.89111 0.39079,0.66337 0.80957,1.31037 1.18256,1.98407 0.205,0.39876 0.39708,0.81208 0.48397,1.25459 0.0394,0.25425 -0.01,0.54926 -0.21605,0.72239 -0.16959,0.15576 -0.40845,0.22207 -0.63547,0.20057 -0.41417,-0.0188 -0.82823,-0.0396 -1.24219,-0.0625 -0.26478,0.008 -0.52528,0.14437 -0.66406,0.37305 -0.15638,0.25325 -0.19709,0.56965 -0.12891,0.85742 0.0707,0.26368 0.26032,0.48185 0.48782,0.62597 0.38045,0.25554 0.8466,0.34485 1.29834,0.35284 0.47141,0.0124 0.94397,-0.0901 1.37271,-0.28484 0.28758,-0.1295 0.54774,-0.31026 0.79238,-0.5077 0.24069,-0.1991 0.45831,-0.42872 0.62584,-0.69338 0.18376,-0.2755 0.33192,-0.57411 0.45895,-0.87954 0.15343,-0.37003 0.26492,-0.75667 0.34677,-1.14851 0.064,-0.23327 0.21599,-0.45319 0.44336,-0.55078 0.27636,-0.12814 0.5738,-0.20322 0.84774,-0.33711 0.23127,-0.10285 0.4404,-0.24954 0.64075,-0.40265 0.31853,-0.24906 0.58811,-0.55696 0.80867,-0.89498 0.34503,-0.53296 0.57014,-1.14439 0.64425,-1.77541 0.04,-0.4214 0.0146,-0.85113 -0.10043,-1.25961 -0.0999,-0.38711 -0.29587,-0.75611 -0.59077,-1.02971 -0.204,-0.19178 -0.44138,-0.35907 -0.71116,-0.4413 -0.0858,-0.0249 -0.17371,-0.0441 -0.26366,-0.035 z m -15.38476,5.92773 c -0.30454,0.03 -0.57931,0.17718 -0.8418,0.32422 -0.28087,0.16835 -0.50588,0.41138 -0.7168,0.65821 -0.1759,0.23867 -0.32691,0.49757 -0.42535,0.77806 -0.17331,0.45102 -0.22204,0.94615 -0.15874,1.4242 0.0439,0.28265 0.13202,0.55959 0.27193,0.80976 0.14353,0.28433 0.35428,0.55443 0.65319,0.68433 0.30416,0.13985 0.65853,0.13639 0.97516,0.0407 0.47294,-0.12033 0.93257,-0.28733 1.38627,-0.46553 0.38533,-0.15865 0.75451,-0.3609 1.07838,-0.62463 0.33708,-0.2713 0.63861,-0.59578 0.84416,-0.9789 0.12497,-0.25846 0.21673,-0.53471 0.25196,-0.82032 0.0234,-0.23447 -0.008,-0.48192 -0.13664,-0.68379 -0.1863,-0.31668 -0.51238,-0.52269 -0.84958,-0.64922 -0.37071,-0.15178 -0.75316,-0.27668 -1.14324,-0.36788 -0.3742,-0.0844 -0.7572,-0.11961 -1.14007,-0.13114 l -0.0483,0.002 z M 209.08594,251.25 c 0.17575,0.48815 0.28492,0.99655 0.40428,1.5005 0.13198,0.6328 0.25135,1.2687 0.34129,1.9089 0.061,0.51919 0.10437,1.04934 0.008,1.56716 -0.0727,0.34962 -0.21569,0.68077 -0.38252,0.99494 -0.13472,0.242 -0.27965,0.48283 -0.47099,0.68475 -0.27908,0.26133 -0.63111,0.42245 -0.96271,0.60483 -0.25578,0.12837 -0.50197,0.28167 -0.76969,0.38279 -0.25769,0.0582 -0.53725,-0.0296 -0.7308,-0.20555 -0.26139,-0.22209 -0.4392,-0.52378 -0.58441,-0.83041 -0.24604,-0.50654 -0.35217,-1.06578 -0.43238,-1.61907 -0.0875,-0.65069 -0.0971,-1.31028 -0.047,-1.96453 0.0238,-0.40217 0.0647,-0.8031 0.12076,-1.20204 0.0573,-0.26821 0.2503,-0.50147 0.5,-0.61329 0.4784,-0.24224 0.97511,-0.44535 1.471,-0.64837 0.4578,-0.18034 0.91775,-0.35507 1.37861,-0.52741 0.0543,-0.002 0.10048,-0.0445 0.15625,-0.0332 z m -92.4668,0.6582 c 0.38818,0.14295 0.74568,0.35394 1.11328,0.54102 0.19899,0.15003 0.54617,0.17902 0.59665,0.46944 0.0299,0.26252 -0.11836,0.50195 -0.18462,0.74854 -0.27394,0.81039 -0.5412,1.62305 -0.81242,2.43436 -0.13199,0.34878 -0.40468,0.64582 -0.75,0.79102 -0.28176,0.0968 -0.59077,-0.0833 -0.69531,-0.35156 -0.0993,-0.21225 -0.1082,-0.45042 -0.13086,-0.67969 -0.0146,-0.35121 -0.006,-0.70296 0.003,-1.05414 0.0261,-0.50482 0.0713,-1.0092 0.16224,-1.50684 0.0486,-0.30217 0.13109,-0.59723 0.20397,-0.8941 0.0686,-0.22636 0.21877,-0.51068 0.49414,-0.49805 z m 70.54297,5.6836 c 0.0986,0.59034 0.0451,1.19074 0.007,1.78399 -0.0331,0.48737 -0.0796,0.9747 -0.16303,1.45624 -0.0526,0.27719 -0.12467,0.55031 -0.19922,0.82227 -0.0829,0.25326 -0.23736,0.47631 -0.40749,0.67841 -0.32012,0.36682 -0.7241,0.64509 -1.11483,0.9302 -0.23959,0.15012 -0.44711,0.37097 -0.72963,0.43826 -0.26053,0.0609 -0.46961,-0.16555 -0.57477,-0.37728 -0.2418,-0.50275 -0.39985,-1.05005 -0.42265,-1.60933 -0.0268,-0.50829 0.048,-1.01504 0.12534,-1.51603 0.10463,-0.57756 0.21488,-1.15405 0.32911,-1.72978 0.0411,-0.20719 0.18151,-0.39515 0.37586,-0.48139 0.2415,-0.0963 0.50892,-0.10017 0.76316,-0.1439 0.654,-0.0872 1.30839,-0.1715 1.96254,-0.25752 l 0.048,0.006 z m -46.25,2.33789 c 0.74961,0.0316 1.50056,0.0483 2.24737,0.12524 0.25793,0.0311 0.51673,0.0538 0.77518,0.0804 0.19824,0.002 0.41756,0.0833 0.49132,0.28386 0.11277,0.20463 -0.0249,0.41755 -0.099,0.60697 -0.23957,0.58003 -0.47032,1.17107 -0.82528,1.69268 -0.18588,0.2729 -0.42833,0.50549 -0.70515,0.68501 -0.22913,0.15075 -0.4647,0.29441 -0.71448,0.40868 -0.20179,0.093 -0.43998,0.15259 -0.65506,0.0681 -0.27426,-0.0921 -0.47589,-0.3135 -0.64963,-0.53489 -0.22552,-0.31385 -0.334,-0.6988 -0.35773,-1.08131 -0.0363,-0.55843 0.0103,-1.11794 0.0351,-1.67598 0.002,-0.23671 -0.004,-0.56154 0.27215,-0.65045 0.0586,-0.0259 0.12422,-0.0204 0.18523,-0.008 z"
           id="path4494"
           inkscape:connector-curvature="0"
           sodipodi:nodetypes="sccccccccccccscccccccscccccccscscccccccccccccssccccccsssccccsccsscsscsscccccscscscscccccccccccscccscscsccccsscccccccccccccscccccccscccsccccccccccccsscccscccccsccccccccccccccccscscsccscccsccscccsccscccccccccccccccccccscccccscsccscccccccccssssccssccsccscscccccccsccccccscssccsscccccscssscccccccscscccccscsccccsccccccccsscscsscccccccccsccccccsscccsccccsscccsssscccccccccccccscsccscsccsscccccccsccccscccccccccccccccccccsccccscccccssccccccscccccccccccsccccscccccccccccccccsccscccccscscscssscccccccsccsssccsccscsccscccssccsscsccccccccccccccccccccccccccccccccccccccccccccccccccccccccccccccccccccccccccccccccccccccccccccccccccccccccccccccccccccccccccccccccccccccccccccccccccccccccccccccccccccccccccccccccccccccccccccccccccccccccccccccccccccccccccccccccccccccccccccccccccccccccccccccccccccccccccccccccccccccccccccccccccccccccccccccccccccccccccccccccccccccccccccccccccccccccccccccccccccccccccccccc" />
      </g>
    </g>
  </g>
</svg>
