<?xml version="1.0" encoding="UTF-8" standalone="no"?>
<!-- Created with Inkscape (http://www.inkscape.org/) -->

<svg
   xmlns:dc="http://purl.org/dc/elements/1.1/"
   xmlns:cc="http://creativecommons.org/ns#"
   xmlns:rdf="http://www.w3.org/1999/02/22-rdf-syntax-ns#"
   xmlns:svg="http://www.w3.org/2000/svg"
   xmlns="http://www.w3.org/2000/svg"
   xmlns:sodipodi="http://sodipodi.sourceforge.net/DTD/sodipodi-0.dtd"
   xmlns:inkscape="http://www.inkscape.org/namespaces/inkscape"
   width="600"
   height="600"
   viewBox="0 0 158.75001 158.75"
   version="1.1"
   id="svg8"
   sodipodi:docname="icon20src.svg"
   inkscape:version="0.92.0 r15299"
   inkscape:export-filename="C:\Users\kkise_000\Documents\GitHub\FireKittenCMS\icon20.png"
   inkscape:export-xdpi="3.2"
   inkscape:export-ydpi="3.2">
  <defs
     id="defs2" />
  <sodipodi:namedview
     id="base"
     pagecolor="#ffffff"
     bordercolor="#666666"
     borderopacity="1.0"
     inkscape:pageopacity="0.0"
     inkscape:pageshadow="2"
     inkscape:zoom="0.99166667"
     inkscape:cx="300"
     inkscape:cy="300"
     inkscape:document-units="mm"
     inkscape:current-layer="layer1"
     showgrid="true"
     units="px"
     inkscape:window-width="1366"
     inkscape:window-height="745"
     inkscape:window-x="-8"
     inkscape:window-y="-8"
     inkscape:window-maximized="1"
     fit-margin-top="0"
     fit-margin-left="0"
     fit-margin-right="0"
     fit-margin-bottom="0">
    <inkscape:grid
       type="xygrid"
       id="grid10"
       spacingx="1.3229167"
       spacingy="1.3229167"
       dotted="true"
       originx="-88.902443"
       originy="-30.033879" />
  </sodipodi:namedview>
  <metadata
     id="metadata5">
    <rdf:RDF>
      <cc:Work
         rdf:about="">
        <dc:format>image/svg+xml</dc:format>
        <dc:type
           rdf:resource="http://purl.org/dc/dcmitype/StillImage" />
        <dc:title></dc:title>
      </cc:Work>
    </rdf:RDF>
  </metadata>
  <g
     inkscape:label="Layer 1"
     inkscape:groupmode="layer"
     id="layer1"
     transform="translate(-88.902439,-108.21613)">
    <g
       id="g4929"
       transform="matrix(3.6206199,3.6206199,-3.6206199,3.6206199,504.79445,-1037.5985)"
       style="fill:#000000;stroke:#000000;stroke-width:1;stroke-miterlimit:4;stroke-dasharray:none">
      <g
         id="g4923"
         style="fill:#000000;stroke:#000000;stroke-width:1;stroke-miterlimit:4;stroke-dasharray:none">
        <path
           style="fill:#000000;stroke:#000000;stroke-width:1;stroke-miterlimit:4;stroke-dasharray:none"
           d="m 127.13477,202.2168 c -0.29722,0.0957 -0.57555,0.2394 -0.85272,0.3811 -0.40896,0.21821 -0.79701,0.49281 -1.09064,0.85522 -0.33659,0.43559 -0.51313,0.98414 -0.52726,1.53221 -0.009,0.26096 0.014,0.52231 0.0682,0.77778 0.0419,0.22546 0.10425,0.46045 0.26377,0.63337 0.21982,0.23558 0.54029,0.33058 0.8418,0.41211 0.4486,0.10842 0.91841,0.12813 1.375,0.0625 0.35808,-0.0644 0.70526,-0.1867 1.02734,-0.35547 0.22528,-0.10926 0.41708,-0.28066 0.54821,-0.49428 0.13455,-0.21611 0.1968,-0.46794 0.25463,-0.71322 0.0664,-0.27906 0.0855,-0.56656 0.0891,-0.85258 3e-5,-0.28372 -0.0275,-0.57313 -0.13417,-0.83835 -0.10576,-0.23851 -0.28373,-0.43675 -0.48769,-0.59618 -0.30182,-0.27077 -0.62727,-0.5144 -0.96934,-0.73195 -0.12532,-0.062 -0.26675,-0.0941 -0.40625,-0.0723 z m 1.74218,10.74609 c -0.24439,0.0593 -0.43555,0.27564 -0.48305,0.51989 -0.0518,0.25997 -0.0159,0.52717 0.002,0.78896 0.0498,0.61605 0.10937,1.23492 0.0671,1.85326 -0.0284,0.30915 -0.14919,0.62045 -0.38364,0.83128 -0.21627,0.19956 -0.54042,0.27261 -0.82121,0.18328 -0.35249,-0.088 -0.65159,-0.30934 -0.92688,-0.53731 -0.53753,-0.43835 -1.06778,-0.88608 -1.62347,-1.30158 -0.23591,-0.18221 -0.47413,-0.36137 -0.71355,-0.53895 -0.19322,-0.12574 -0.44478,-0.16952 -0.66406,-0.0898 -0.25292,0.10138 -0.44671,0.30958 -0.59375,0.5332 -0.15614,0.23193 -0.27036,0.51635 -0.20117,0.79883 0.0914,0.32539 0.29559,0.60078 0.46038,0.89111 0.39079,0.66337 0.80957,1.31037 1.18256,1.98407 0.205,0.39876 0.39708,0.81208 0.48397,1.25459 0.0394,0.25425 -0.01,0.54926 -0.21605,0.72239 -0.16959,0.15576 -0.40845,0.22207 -0.63547,0.20057 -0.41417,-0.0188 -0.82823,-0.0396 -1.24219,-0.0625 -0.26478,0.008 -0.52528,0.14437 -0.66406,0.37305 -0.15638,0.25325 -0.19709,0.56965 -0.12891,0.85742 0.0707,0.26368 0.26032,0.48185 0.48782,0.62597 0.38045,0.25554 0.8466,0.34485 1.29834,0.35284 0.47141,0.0124 0.94397,-0.0901 1.37271,-0.28484 0.28758,-0.1295 0.54774,-0.31026 0.79238,-0.5077 0.24069,-0.1991 0.45831,-0.42872 0.62584,-0.69338 0.18376,-0.2755 0.33192,-0.57411 0.45895,-0.87954 0.15343,-0.37003 0.26492,-0.75667 0.34677,-1.14851 0.064,-0.23327 0.21599,-0.45319 0.44336,-0.55078 0.27636,-0.12814 0.5738,-0.20322 0.84774,-0.33711 0.23127,-0.10285 0.4404,-0.24954 0.64075,-0.40265 0.31853,-0.24906 0.58811,-0.55696 0.80867,-0.89498 0.34503,-0.53296 0.57014,-1.14439 0.64425,-1.77541 0.04,-0.4214 0.0146,-0.85113 -0.10043,-1.25961 -0.0999,-0.38711 -0.29587,-0.75611 -0.59077,-1.02971 -0.204,-0.19178 -0.44138,-0.35907 -0.71116,-0.4413 -0.0858,-0.0249 -0.17371,-0.0441 -0.26366,-0.035 z m -15.38476,5.92773 c -0.30454,0.03 -0.57931,0.17718 -0.8418,0.32422 -0.28087,0.16835 -0.50588,0.41138 -0.7168,0.65821 -0.1759,0.23867 -0.32691,0.49757 -0.42535,0.77806 -0.17331,0.45102 -0.22204,0.94615 -0.15874,1.4242 0.0439,0.28265 0.13202,0.55959 0.27193,0.80976 0.14353,0.28433 0.35428,0.55443 0.65319,0.68433 0.30416,0.13985 0.65853,0.13639 0.97516,0.0407 0.47294,-0.12033 0.93257,-0.28733 1.38627,-0.46553 0.38533,-0.15865 0.75451,-0.3609 1.07838,-0.62463 0.33708,-0.2713 0.63861,-0.59578 0.84416,-0.9789 0.12497,-0.25846 0.21673,-0.53471 0.25196,-0.82032 0.0234,-0.23447 -0.008,-0.48192 -0.13664,-0.68379 -0.1863,-0.31668 -0.51238,-0.52269 -0.84958,-0.64922 -0.37071,-0.15178 -0.75316,-0.27668 -1.14324,-0.36788 -0.3742,-0.0844 -0.7572,-0.11961 -1.14007,-0.13114 l -0.0483,0.002 z"
           id="path4494"
           inkscape:connector-curvature="0"
           sodipodi:nodetypes="cccccccccccccccccccccccccccccccccccccccccccccccccccccccccccccccccccccccc" />
      </g>
    </g>
  </g>
</svg>
